<svg width="64" height="64" viewBox="0 0 64 64" fill="none" xmlns="http://www.w3.org/2000/svg">
<path d="M37.8133 11.4027C38.3257 11.5396 38.7627 11.8744 39.0282 12.3335C39.2938 12.7926 39.3661 13.3383 39.2293 13.8507L28.6347 53.3974C28.4971 53.9101 28.1615 54.3472 27.7016 54.6125C27.2418 54.8778 26.6954 54.9496 26.1827 54.812C25.6699 54.6745 25.2328 54.3389 24.9675 53.879C24.7022 53.4192 24.6304 52.8728 24.768 52.36L35.3653 12.8134C35.4334 12.5596 35.5508 12.3218 35.7108 12.1134C35.8708 11.9051 36.0703 11.7303 36.2979 11.599C36.5254 11.4678 36.7767 11.3826 37.0371 11.3485C37.2976 11.3144 37.5623 11.3319 37.816 11.4M43.848 19.5414C44.2027 19.1472 44.6995 18.91 45.2291 18.882C45.7587 18.854 46.2777 19.0374 46.672 19.392L51.304 23.5627C53.2693 25.328 54.896 26.7947 56.016 28.1227C57.1893 29.5227 58.0267 31.024 58.0267 32.88C58.0267 34.7334 57.192 36.2347 56.016 37.632C54.896 38.9627 53.2693 40.4294 51.304 42.1947L46.672 46.3654C46.2777 46.7204 45.7585 46.9043 45.2287 46.8765C44.6988 46.8488 44.2017 46.6117 43.8467 46.2174C43.4916 45.8231 43.3078 45.3039 43.3355 44.7741C43.3633 44.2442 43.6004 43.7471 43.9947 43.392L48.52 39.32C50.6213 37.4294 52.0373 36.1467 52.9547 35.0587C53.8347 34.0107 54.0267 33.4 54.0267 32.8774C54.0267 32.3574 53.8347 31.7467 52.9547 30.6987C52.0373 29.608 50.6213 28.3254 48.52 26.4374L43.9947 22.3654C43.7991 22.1897 43.64 21.9772 43.5267 21.74C43.4133 21.5028 43.3478 21.2455 43.3339 20.983C43.3201 20.7205 43.3581 20.4578 43.4458 20.2099C43.5336 19.9621 43.6693 19.734 43.8453 19.5387M20.0053 22.3654C20.3996 22.0103 20.6367 21.5132 20.6645 20.9834C20.6922 20.4535 20.5084 19.9343 20.1533 19.54C19.7983 19.1458 19.3012 18.9087 18.7713 18.8809C18.2415 18.8531 17.7223 19.037 17.328 19.392L12.696 23.5627C10.7307 25.328 9.10399 26.7947 7.98399 28.1227C6.81066 29.5227 5.97333 31.024 5.97333 32.88C5.97333 34.7334 6.80799 36.2347 7.98399 37.632C9.10399 38.9627 10.7307 40.4294 12.696 42.1947L17.328 46.3654C17.7223 46.7204 18.2415 46.9043 18.7713 46.8765C19.3012 46.8488 19.7983 46.6117 20.1533 46.2174C20.5084 45.8231 20.6922 45.3039 20.6645 44.7741C20.6367 44.2442 20.3996 43.7471 20.0053 43.392L15.48 39.32C13.3787 37.4294 11.9627 36.1467 11.0453 35.0587C10.1653 34.0107 9.97333 33.4 9.97333 32.8774C9.97333 32.3574 10.1653 31.7467 11.0453 30.6987C11.9627 29.608 13.3787 28.3254 15.48 26.4374L20.0053 22.3654Z" fill="white"/>
</svg>
